<?xml version="1.0" encoding="UTF-8"?>
<svg width="24px" height="22px" viewBox="0 0 24 22" version="1.1" xmlns="http://www.w3.org/2000/svg" xmlns:xlink="http://www.w3.org/1999/xlink">
    <!-- Generator: Sketch 58 (84663) - https://sketch.com -->
    <title>图标</title>
    <desc>Created with Sketch.</desc>
    <g id="教师基地" stroke="none" stroke-width="1" fill="none" fill-rule="evenodd">
        <g id="图标" fill-rule="nonzero">
            <path d="M20.5525,0 L3.425,0 C1.53342473,0 0,1.49934863 0,3.34888889 L0,15.9084444 C0,17.7579847 1.53342473,19.2573333 3.425,19.2573333 L20.5525,19.2573333 C22.4440753,19.2573333 23.9775,17.7579847 23.9775,15.9084444 L23.9775,3.34888889 C23.9775,2.46070833 23.6166528,1.60890534 22.9743407,0.980866846 C22.3320286,0.352828352 21.4608665,0 20.5525,0 Z M22.75,15.9084444 C22.75,16.8324444 21.5,18.0571111 20.5525,18.0571111 L3.425,18.0571111 C2.4775,18.0571111 1.2275,16.8324444 1.2275,15.9084444 L1.2275,3.34888889 C1.2275,2.42488889 2.4775,1.20022222 3.425,1.20022222 L20.5525,1.20022222 C21.4975,1.20022222 22.75,2.42244444 22.75,3.34888889 L22.75,15.9084444 Z M17.9775,20.0957778 L5.995,20.0957778 C5.6780514,20.0790261 5.37756481,20.234835 5.21393705,20.500776 C5.05030929,20.766717 5.05030929,21.099283 5.21393705,21.365224 C5.37756481,21.631165 5.6780514,21.7869739 5.995,21.7702222 L17.9775,21.7702222 C18.2944486,21.7869739 18.5949352,21.631165 18.758563,21.365224 C18.9221907,21.099283 18.9221907,20.766717 18.758563,20.500776 C18.5949352,20.234835 18.2944486,20.0790261 17.9775,20.0957778 L17.9775,20.0957778 Z" id="形状" fill="#36497A"></path>
            <path d="M10.43,4.35111111 L11.84,4.35111111 C11.9921365,4.34176062 12.1410767,4.39661004 12.2491045,4.50176985 C12.3571323,4.60692965 12.4138882,4.75231542 12.405,4.90111111 L12.405,6.82977778 C12.4306965,7.53564155 12.060223,8.19891009 11.4389656,8.55929511 C10.8177081,8.91968012 10.0447919,8.91968012 9.42353442,8.55929511 C8.80227697,8.19891009 8.43180353,7.53564155 8.4575,6.82977778 L8.4575,6.27977778 C8.47229429,5.22065427 9.34680551,4.36557664 10.43,4.35111111 Z" id="路径" fill="#37E1AC"></path>
            <path d="M9.8675,9.58711111 C7.99874808,9.58577253 6.48300798,8.10699443 6.4775,6.27977778 L6.4775,5.72733333 C6.48300798,3.90011668 7.99874808,2.42133858 9.8675,2.42 L12.1175,2.42 C12.7396307,2.42134433 13.2436251,2.9141389 13.245,3.52244444 L13.245,6.27977778 C13.239524,8.10223909 11.7313707,9.5790609 9.8675,9.58711111 Z M9.8675,3.24622222 C9.19369782,3.24361038 8.54672158,3.5041736 8.07026775,3.97003958 C7.59381391,4.43590555 7.3273288,5.06850453 7.32998011,5.72733333 L7.32998011,6.27977778 C7.32998011,7.16619341 7.81364474,7.98527525 8.59874998,8.42848307 C9.38385522,8.8716909 10.3511448,8.8716909 11.13625,8.42848307 C11.9213553,7.98527525 12.405,7.16619341 12.405,6.27977778 L12.405,3.52244444 C12.4086068,3.44816067 12.3800034,3.37583474 12.3262226,3.32324903 C12.2724417,3.27066331 12.198472,3.24269562 12.1225,3.24622222 L9.8675,3.24622222 Z" id="形状" fill="#36497A"></path>
            <path d="M6.8225,12.620638 L13.87,12.620638 C14.7694362,12.6162169 15.5869207,13.1308858 15.955,13.9333333 L16.2275,14.5493333 C16.5385024,15.2494514 16.2166412,16.0639917 15.505,16.3777778 C15.3231872,16.4412831 15.1328241,16.4783449 14.94,16.487796 L6.0325,16.487796 C5.62809596,16.4897402 5.23967493,16.3335292 4.95371457,16.0539235 C4.66775421,15.7743178 4.50799299,15.3945284 4.51,14.9991111 C4.50086397,14.8502193 4.52036777,14.7009728 4.5675,14.5591111 L4.68,14.2291111 C4.94306003,13.2829238 5.81969908,12.6248023 6.8225,12.620638 Z" id="路径" fill="#37E1AC"></path>
            <path d="M14.5475,16.7542222 L5.1875,16.7542222 C3.82138886,16.7449142 2.71589599,15.6650764 2.705,14.3293333 C2.71052245,14.1228179 2.74846516,13.9183582 2.8175,13.7231111 L2.9775,13.1168889 C3.38325776,11.679532 4.72251074,10.6853994 6.2475,10.6895426 L13.4775,10.6895426 C15.0024893,10.6853994 16.3417422,11.679532 16.7475,13.1168889 L16.9175,13.7231111 C17.0990628,14.3339865 17.0177972,14.9908535 16.6925,15.5417778 C16.3693248,16.0815158 15.8438479,16.4769486 15.2275,16.6442222 C15.0064483,16.7086276 14.7779877,16.7455845 14.5475,16.7542222 Z M6.2575,11.572 C5.13574764,11.5616827 4.14431133,12.2832393 3.8325,13.3368889 L3.665,13.9333333 C3.62638965,14.0769393 3.60706061,14.2248485 3.60749267,14.3733333 C3.60749267,15.2562526 4.33951443,15.972 5.2425,15.972 L14.6025,15.972 C14.7554109,15.9807436 14.9086836,15.9625277 15.055,15.9182222 C15.4496522,15.7956465 15.7882505,15.5423707 16.0125,15.202 C16.2385337,14.8347453 16.3000159,14.3927169 16.1825,13.9797778 L16.0125,13.3735556 C15.7292035,12.293471 14.7278101,11.5424604 13.5875,11.5548889 L6.2575,11.572 Z" id="形状" fill="#36497A"></path>
            <path d="M9.415,11.2444444 L10.26,11.2444444 L10.655,13.5593333 C10.655,13.6693333 10.655,13.7255556 10.6,13.7793333 L10.035,14.3317778 C9.98355733,14.3846894 9.91216386,14.4146446 9.8375,14.4146446 C9.76283614,14.4146446 9.69144267,14.3846894 9.64,14.3317778 L9.0775,13.7768889 C9.02,13.7231111 8.965,13.6131111 9.02,13.5568889 L9.415,11.2444444 Z" id="路径" fill="#36497A"></path>
            <path d="M17.1325,8.17666667 L17.1325,8.17666667 C17.250456,8.22321423 17.3391936,8.32124294 17.3721212,8.44137703 C17.4050489,8.56151112 17.3783406,8.68979177 17.3,8.78777778 L15.6975,11.5011111 C15.6507316,11.6171826 15.5504491,11.7046985 15.4272081,11.7369931 C15.3039671,11.7692877 15.1723649,11.742536 15.0725,11.6648889 L15.0725,11.6648889 C14.954544,11.6183413 14.8658064,11.5203126 14.8328788,11.4001785 C14.7999511,11.2800444 14.8266594,11.1517638 14.905,11.0537778 L16.5075,8.34044444 C16.5551055,8.22510971 16.6553621,8.13834406 16.7782265,8.10614813 C16.9010909,8.07395219 17.032287,8.10006693 17.1325,8.17666667 L17.1325,8.17666667 Z" id="路径" fill="#36497A"></path>
            <path d="M20.58,3.96733333 L20.58,3.96733333 C20.58,4.49207407 20.3108333,4.75525926 19.7725,4.75688889 L16.54,4.75688889 C15.9983333,4.75688889 15.7275,4.4937037 15.7275,3.96733333 L15.7275,3.96733333 C15.7275,3.43933333 16.0025,3.17777778 16.54,3.17777778 L19.7725,3.17777778 C20.31,3.17777778 20.58,3.43933333 20.58,3.96733333 L20.58,3.96733333 Z" id="路径" fill="#37E1AC"></path>
            <path d="M20.58,6.336 L20.58,6.336 C20.58,6.86074074 20.3108333,7.12392593 19.7725,7.12555556 L18.1575,7.12555556 C17.6175,7.12555556 17.35,6.86155556 17.35,6.336 L17.35,6.336 C17.35,5.808 17.6175,5.54644444 18.1575,5.54644444 L19.7725,5.54644444 C20.31,5.54644444 20.58,5.808 20.58,6.336 L20.58,6.336 Z" id="路径" fill="#37E1AC"></path>
        </g>
    </g>
</svg>