<?xml version="1.0" encoding="UTF-8"?>
<svg width="12px" height="12px" viewBox="0 0 12 12" version="1.1" xmlns="http://www.w3.org/2000/svg" xmlns:xlink="http://www.w3.org/1999/xlink">
    <!-- Generator: Sketch 58 (84663) - https://sketch.com -->
    <title>search</title>
    <desc>Created with Sketch.</desc>
    <g id="教师基地" stroke="none" stroke-width="1" fill="none" fill-rule="evenodd">
        <g id="状态" transform="translate(-572.000000, -151.000000)" fill-rule="nonzero">
            <g id="基础组件-输入框/姓名" transform="translate(353.000000, 141.000000)">
                <g id="search" transform="translate(218.000000, 9.000000)">
                    <polygon id="矩形" fill="#909399" opacity="0" points="0 0 14 0 14 14 0 14 0 5.44335938"></polygon>
                    <path d="M12.4359375,11.6826172 L8.88535156,8.13203125 C9.43632812,7.41972656 9.734375,6.54882812 9.734375,5.6328125 C9.734375,4.53632812 9.30644531,3.50820313 8.53261719,2.73300781 C7.75878906,1.9578125 6.72792969,1.53125 5.6328125,1.53125 C4.53769531,1.53125 3.50683594,1.95917969 2.73300781,2.73300781 C1.9578125,3.50683594 1.53125,4.53632812 1.53125,5.6328125 C1.53125,6.72792969 1.95917969,7.75878906 2.73300781,8.53261719 C3.50683594,9.3078125 4.53632812,9.734375 5.6328125,9.734375 C6.54882812,9.734375 7.41835937,9.43632812 8.13066406,8.88671875 L11.68125,12.4359375 C11.725,12.4796875 11.7960937,12.4796875 11.8398437,12.4359375 L12.4359375,11.8412109 C12.4796875,11.7974609 12.4796875,11.7263672 12.4359375,11.6826172 Z M7.7984375,7.7984375 C7.21875,8.37675781 6.45039063,8.6953125 5.6328125,8.6953125 C4.81523437,8.6953125 4.046875,8.37675781 3.4671875,7.7984375 C2.88886719,7.21875 2.5703125,6.45039063 2.5703125,5.6328125 C2.5703125,4.81523437 2.88886719,4.04550781 3.4671875,3.4671875 C4.046875,2.88886719 4.81523437,2.5703125 5.6328125,2.5703125 C6.45039063,2.5703125 7.22011719,2.8875 7.7984375,3.4671875 C8.37675781,4.046875 8.6953125,4.81523437 8.6953125,5.6328125 C8.6953125,6.45039063 8.37675781,7.22011719 7.7984375,7.7984375 Z" id="形状" fill="#C0C0C0"></path>
                </g>
            </g>
        </g>
    </g>
</svg>