<?xml version="1.0" encoding="UTF-8"?>
<svg width="14px" height="14px" viewBox="0 0 14 14" version="1.1" xmlns="http://www.w3.org/2000/svg" xmlns:xlink="http://www.w3.org/1999/xlink">
    <!-- Generator: Sketch 58 (84663) - https://sketch.com -->
    <title>houtaiguanli-</title>
    <desc>Created with Sketch.</desc>
    <g id="教师基地" stroke="none" stroke-width="1" fill="none" fill-rule="evenodd">
        <g id="订单查询" transform="translate(-158.000000, -97.000000)" fill="#333333" fill-rule="nonzero">
            <g id="houtaiguanli-" transform="translate(158.000000, 97.000000)">
                <path d="M13.4567676,9.21059028 L12.8310008,9.0710841 C12.7856615,8.91124054 12.7196576,8.75807943 12.6346818,8.61552855 L12.9671971,8.03898535 C13.0849885,7.84145448 13.1635161,7.5217014 12.9671971,7.34392361 L12.6150498,6.98589891 C12.5168903,6.88836804 12.3990989,6.84886188 12.2629026,6.84886188 C12.1267063,6.84886188 12.0064609,6.88836804 11.8911235,6.96614584 L11.380694,7.32417052 C11.2360245,7.24575023 11.0854597,7.17887813 10.9303873,7.12417052 L10.794191,6.4908372 C10.7549272,6.2525656 10.5402032,5.99454089 10.2862155,5.99454089 L9.79664494,5.99454089 C9.52057132,5.99454089 9.36474309,6.25256558 9.30830138,6.4908372 L9.15001917,7.12417052 C8.99419094,7.18466434 8.81382285,7.24515817 8.68008052,7.32417052 L8.11198236,6.96491127 C7.99636227,6.90616124 7.86961396,6.87291066 7.74020321,6.8673804 C7.60924828,6.86599004 7.48291644,6.91603749 7.38805597,7.00688657 L7.03590874,7.34392361 C6.83958972,7.54268904 6.91811733,7.84145447 7.03590874,8.03898535 L7.38805597,8.63404707 L7.21136887,9.05133101 L6.585602,9.19207176 C6.35124616,9.23034337 6.09603144,9.45009645 6.09603144,9.70812113 L6.09603144,10.2019483 C6.09603144,10.4821952 6.35001917,10.6389853 6.584375,10.6982446 L7.21014187,10.8575039 C7.24817869,10.99701 7.30830139,11.1155285 7.36597009,11.2550347 L7.01627685,11.8488619 C6.89603145,12.0476273 6.81995783,12.3649113 7.01627685,12.5439236 L7.38805597,12.9402199 C7.48621549,13.0377508 7.6040069,13.0772569 7.74020321,13.077257 C7.8731303,13.0773128 8.00288183,13.0363805 8.11198236,12.959973 L8.68008052,12.6007137 C8.83836274,12.6772569 8.99419094,12.759973 9.15001917,12.8007137 L9.30830138,13.4352816 C9.36597009,13.6710841 9.52179831,13.9315779 9.79664494,13.9315779 L10.2849885,13.9315779 C10.5610621,13.9315779 10.7549271,13.6710841 10.792964,13.4352816 L10.9279333,12.7784915 C11.0862155,12.7204668 11.2199578,12.6612076 11.37824,12.6007137 L11.9254793,12.959973 C12.0236388,13.0365162 12.1598351,13.0772569 12.2984854,13.077257 C12.4291449,13.0795746 12.5555258,13.0303939 12.6506327,12.9402199 L13.0040069,12.5821952 C13.1978719,12.3846644 13.1205713,12.0858989 13.0040069,11.8883681 L12.6714916,11.3105903 C12.7267063,11.1735532 12.8076879,11.0303434 12.8481787,10.8933063 L13.4763995,10.7340471 C13.7083014,10.6735532 13.9647431,10.5167631 13.9647431,10.2377508 L13.9647431,9.74392361 C13.9254793,9.46861497 13.6935775,9.26984953 13.4567676,9.21059028 L13.4567676,9.21059028 Z M10.0322278,11.1772569 C9.40358244,11.1419848 8.91178616,10.6187902 8.91178616,9.98528163 C8.91178616,9.35177308 9.40358244,8.82857846 10.0322278,8.79330632 C10.6763995,8.79330632 11.2040069,9.33034336 11.2040069,9.98713349 C11.2040069,10.6414545 10.6763995,11.1772569 10.0322278,11.1772569 L10.0322278,11.1772569 Z" id="形状"></path>
                <path d="M4.87639954,12.1328125 L4.86658359,12.1328125 L4.09235046,12.1204668 C3.01259586,12.1204668 1.98560199,11.6933063 1.21014188,10.9167631 C0.443044583,10.1459074 0.0133214124,9.09896257 0.0162617011,8.00812114 C0.0162617011,6.91182485 0.44081673,5.87972607 1.21136887,5.10071374 C1.75190971,4.55186789 2.43674701,4.16943484 3.185602,3.9982446 C3.24940569,3.64886187 3.35124618,3.31059028 3.48989647,2.98960263 C3.72916027,2.41305942 4.07885352,1.88836805 4.52916027,1.43898533 C4.97178994,0.994300676 5.49489679,0.638940128 6.07026457,0.392071752 C7.3959543,-0.1625763 8.89618739,-0.107570848 10.17824,0.542689043 C10.8406639,0.885065047 11.41649,1.37534259 11.8616756,1.97602237 C12.0629299,2.25054683 12.0052893,2.63718942 11.7328413,2.8402199 C11.4584563,3.0401924 11.0753177,2.98134947 10.8727186,2.70812113 C10.5406063,2.26061264 10.1112805,1.89535432 9.61750384,1.64021991 C8.6592839,1.15471657 7.53830667,1.11369394 6.54756518,1.52787423 C5.67905184,1.90004469 4.98739104,2.595975 4.61750383,3.46984953 C4.46669195,3.82272994 4.37426505,4.19805591 4.3438842,4.58096065 C4.31946595,4.8769366 4.08903297,5.11346024 3.79541795,5.14392362 C2.34149114,5.30065347 1.2399752,6.53685144 1.24327071,8.00812114 C1.24065289,8.77194558 1.54097699,9.50526352 2.07765691,10.045488 C2.61433683,10.5857126 3.34302696,10.8882051 4.10216641,10.8858989 L4.7659701,10.89701 C4.80230674,10.8895251 4.83930937,10.885802 4.87639954,10.8858989 L4.87762654,10.8982446 L4.87762654,10.8858989 C5.03513773,10.8664498 5.19383328,10.9112399 5.31831181,11.0102778 C5.44279034,11.1093156 5.52269585,11.2543617 5.54020323,11.4130594 C5.57019299,11.6934004 5.41201841,11.9598272 5.15247316,12.0661458 C5.06692712,12.1098692 4.97234984,12.1328125 4.87639954,12.1328125 Z" id="路径"></path>
            </g>
        </g>
    </g>
</svg>